<?xml version="1.0" encoding="UTF-8"?>
<!DOCTYPE svg PUBLIC "-//W3C//DTD SVG 1.1//EN" "http://www.w3.org/Graphics/SVG/1.1/DTD/svg11.dtd">
<!-- Creator: CorelDRAW X7 -->
<svg xmlns="http://www.w3.org/2000/svg" xml:space="preserve" width="512px" height="512px" version="1.1" shape-rendering="geometricPrecision" text-rendering="geometricPrecision" image-rendering="optimizeQuality" fill-rule="evenodd" clip-rule="evenodd"
viewBox="0 0 512 512"
 xmlns:xlink="http://www.w3.org/1999/xlink">
 <g id="Layer_x0020_1">
  <metadata id="CorelCorpID_0Corel-Layer"/>
  <g id="_2149633743392">
   <path fill="black" fill-rule="nonzero" d="M438 350l0 -73 8 0 0 28c1,-3 3,-5 6,-6 3,-1 6,-2 11,-2 6,0 11,2 14,4 3,3 4,8 4,15l0 34 -8 0 0 -33c0,-5 0,-9 -2,-10 -2,-2 -5,-3 -9,-3 -6,0 -10,1 -12,4 -3,2 -4,6 -4,12l0 30 -8 0zm-199 0l0 -52 7 0 0 7c1,-3 3,-5 6,-6 3,-1 7,-2 11,-2 7,0 12,2 14,4 3,3 4,8 4,15l0 34 -7 0 0 -33c0,-5 -1,-9 -3,-10 -1,-2 -4,-3 -9,-3 -5,0 -9,1 -12,4 -2,2 -4,6 -4,12l0 30 -7 0zm-104 0l0 -52 7 0 0 7c2,-3 4,-5 6,-6 3,-1 7,-2 11,-2 7,0 12,2 15,4 2,3 4,8 4,15l0 34 -8 0 0 -33c0,-5 -1,-9 -2,-10 -2,-2 -5,-3 -10,-3 -5,0 -9,1 -12,4 -2,2 -3,6 -3,12l0 30 -8 0zm-104 -16l8 0 0 1c0,4 1,6 3,7 2,1 6,2 12,2 6,0 10,-1 12,-2 1,-1 2,-4 2,-7 0,-3 -1,-6 -2,-7 -1,-1 -4,-2 -9,-2 -2,0 -5,0 -8,0 -7,0 -11,-1 -12,-2 -2,-1 -4,-2 -4,-4 -1,-2 -2,-5 -2,-8 0,-6 2,-10 5,-12 3,-2 9,-3 19,-3 8,0 13,1 16,3 2,2 4,6 4,10l-8 0 0 0c0,-2 -1,-4 -3,-5 -2,-1 -6,-1 -12,-1 -5,0 -9,0 -11,1 -1,1 -2,4 -2,7 0,2 0,3 0,4 1,1 1,2 2,2 2,1 5,1 10,2 2,0 3,0 3,0 5,0 8,0 11,0 2,1 4,1 5,1 2,1 4,3 5,5 1,2 1,5 1,9 0,3 0,6 -1,8 -1,2 -3,4 -5,5 -2,1 -3,2 -6,2 -2,0 -6,0 -10,0 -10,0 -16,-1 -19,-3 -3,-2 -4,-6 -4,-11l0 -2zm60 36l-16 0 0 -7 16 0c3,0 5,-1 7,-4 0,-1 1,-2 2,-4l0 -2 -4 -14 -15 -41 8 0 15 44 15 -44 8 0 -19 56c-3,6 -5,10 -7,13 -2,1 -4,2 -7,3 -1,0 -2,0 -3,0zm111 -66c-5,0 -9,5 -9,10l0 20c0,5 4,9 9,9l12 0c5,0 10,-4 10,-9l0 -20c0,-5 -5,-10 -10,-10l-12 0zm0 -7l12 0c9,0 17,8 17,17l0 20c0,9 -8,16 -17,16l-12 0c-9,0 -16,-7 -16,-16l0 -20c0,-9 7,-17 16,-17zm147 7l12 0c5,0 9,5 9,10l0 4 -31 0 0 -4c0,-5 4,-10 10,-10zm21 28l0 2c0,5 -4,9 -9,9l-12 0c-6,0 -10,-4 -10,-9l0 -9 8 0 23 0 7 0 0 -11c0,-9 -7,-17 -16,-17l-12 0c-10,0 -17,8 -17,17l0 20c0,9 7,16 17,16l12 0c9,0 16,-7 16,-16l0 -2 -7 0zm32 -28l12 0c5,0 9,5 9,10l0 3 7 0 0 -3c0,-9 -7,-17 -16,-17l-12 0c-9,0 -17,8 -17,17l0 20c0,9 8,16 17,16l12 0c9,0 16,-7 16,-16l0 -3 -7 0 0 3c0,5 -4,9 -9,9l-12 0c-5,0 -10,-4 -10,-9l0 -20c0,-5 5,-10 10,-10zm-104 -18l0 11 -9 0 0 8 9 0 0 45 7 0 0 -45 21 0 0 -8 -21 0 0 -11 -7 0z"/>
   <g>
    <path fill="black" d="M348 167c30,12 20,49 -11,54 -11,23 -47,41 -83,40 -43,0 -70,-21 -78,-40 -30,3 -44,-47 -12,-53 -7,-20 -6,-44 1,-62 3,-7 8,-10 12,-18 8,-12 13,-25 25,-36 -1,39 3,0 42,-19 10,31 27,27 18,12 11,7 30,9 42,15 12,7 16,17 24,26 30,13 27,46 20,81zm-175 47c-19,-1 -28,-34 -7,-39l2 0c1,13 3,26 5,39zm3 -40c-1,-9 1,-14 6,-19 12,-11 2,-19 8,-31 5,-7 17,-11 23,-11 26,-2 27,11 44,9 21,-1 28,-18 56,-7 11,5 10,19 12,28 2,8 5,13 11,18 1,13 -1,45 -6,57 -12,24 -51,36 -76,35 -16,0 -34,-3 -48,-12 -9,-5 -19,-13 -23,-23 -5,-10 -6,-33 -7,-44zm164 39c2,-13 4,-26 4,-39l1 0c22,9 14,33 -5,39zm-88 25c-1,-1 -1,-1 -1,-2 0,0 1,-1 1,-1 3,1 5,1 7,1 3,-1 5,-1 6,-1 1,0 2,0 2,1 0,0 0,1 -1,1 -2,1 -4,1 -6,1 -3,0 -5,0 -8,0zm-10 -11c3,1 6,2 10,3 3,0 6,1 10,0 3,0 6,-1 9,-3 3,-1 6,-3 9,-6 1,0 1,-1 0,-2 0,0 -1,0 -2,0 -2,2 -5,4 -8,5 -3,2 -6,3 -9,3 -3,1 -6,0 -9,0 -3,-1 -6,-2 -9,-3 -1,0 -2,0 -2,1 0,1 0,2 1,2zm-1 2c-2,-1 -3,-3 -2,-5 1,-2 3,-3 5,-2 3,1 6,2 9,3 2,0 5,0 8,0 3,-1 5,-2 8,-3 3,-1 5,-3 8,-5 1,-1 4,-1 5,1 2,1 1,4 0,5 -3,3 -6,5 -10,6 -3,2 -6,3 -10,3 -4,1 -7,1 -11,0 -3,-1 -7,-2 -10,-3zm25 -47c0,-1 0,-1 1,-1 1,0 1,0 1,1 0,2 -1,6 -1,9 0,4 0,7 1,10 1,2 1,4 0,5 0,2 -1,2 -2,3 -1,1 -3,1 -6,0 -1,0 -4,1 -7,1 -3,0 -5,-1 -6,-4 0,-1 1,-2 3,-2 1,0 3,1 5,1 2,1 4,1 5,2 0,0 1,0 1,0 1,0 3,0 4,0 0,-1 1,-1 1,-2 0,0 0,-1 0,-3 -1,-3 -2,-7 -1,-11 0,-3 0,-7 1,-9zm-11 26c-2,-1 -4,-2 -5,-1 0,0 2,1 3,1 1,0 1,0 2,0zm-57 -47c-2,1 -5,0 -6,-2 -1,-2 0,-5 2,-6 8,-3 14,-5 21,-4 6,0 12,2 18,6 2,2 3,4 1,6 -1,2 -4,3 -6,1 -4,-3 -9,-4 -14,-4 -5,-1 -10,0 -16,3zm119 1c3,1 5,0 6,-2 1,-2 0,-5 -2,-6 -7,-3 -14,-5 -21,-4 -6,0 -12,2 -18,6 -2,2 -2,4 -1,6 2,2 4,3 6,2 5,-3 9,-5 14,-5 5,-1 10,1 16,3z"/>
    <path fill="blue" d="M215 205c-10,0 -18,-8 -18,-18 0,-10 8,-18 18,-18 10,0 18,8 18,18 0,10 -8,18 -18,18zm0 -33c8,0 15,6 15,15 0,8 -7,15 -15,15 -9,0 -15,-7 -15,-15 0,-9 6,-15 15,-15z"/>
    <path fill="lime" d="M301 205c-10,0 -18,-8 -18,-18 0,-10 8,-18 18,-18 9,0 17,8 17,18 0,10 -8,18 -17,18zm0 -33c8,0 15,6 15,15 0,8 -7,15 -15,15 -9,0 -15,-7 -15,-15 0,-9 6,-15 15,-15z"/>
   </g>
  </g>
 </g>
</svg>
