<?xml version="1.0" encoding="UTF-8"?>
<!DOCTYPE svg PUBLIC "-//W3C//DTD SVG 1.1//EN" "http://www.w3.org/Graphics/SVG/1.1/DTD/svg11.dtd">
<!-- Creator: CorelDRAW X7 -->
<svg xmlns="http://www.w3.org/2000/svg" xml:space="preserve" width="512px" height="512px" version="1.1" shape-rendering="geometricPrecision" text-rendering="geometricPrecision" image-rendering="optimizeQuality" fill-rule="evenodd" clip-rule="evenodd"
viewBox="0 0 512 512"
 xmlns:xlink="http://www.w3.org/1999/xlink">
 <g id="Layer_x0020_1">
  <metadata id="CorelCorpID_0Corel-Layer"/>
  <rect fill="#1A1A1A" width="512" height="512"/>
  <path fill="#E6E6E6" d="M431 294c58,22 39,94 -21,104 -20,43 -89,77 -157,76 -83,-1 -135,-41 -150,-76 -57,6 -83,-90 -22,-103 -14,-38 -13,-82 1,-117 5,-15 15,-20 24,-34 14,-23 24,-49 47,-70 -1,76 5,0 80,-36 19,58 52,52 34,23 21,14 58,17 81,29 22,12 30,33 45,49 58,25 52,87 38,155zm-333 89c-36,-1 -55,-65 -14,-73l5 -1c0,25 5,49 9,74zm6 -77c-2,-16 1,-26 11,-36 23,-20 3,-36 16,-58 8,-14 31,-21 43,-22 50,-3 51,21 85,19 39,-3 53,-36 105,-14 21,9 21,35 24,53 3,15 10,25 22,35 0,25 -3,86 -13,108 -22,47 -97,69 -144,68 -32,0 -65,-7 -93,-23 -17,-10 -35,-26 -43,-44 -9,-21 -12,-63 -13,-86zm312 75c4,-24 7,-49 8,-74l1 1c43,16 28,61 -9,73zm-168 48c-1,-1 -2,-2 -2,-3 1,-1 2,-2 3,-2 5,1 9,1 14,1 4,0 7,-1 11,-2 1,0 2,1 3,2 0,1 -1,2 -2,3 -4,1 -8,1 -12,1 -5,0 -9,0 -15,0zm-19 -21c6,3 12,5 19,6 6,1 12,1 19,0 6,-1 12,-3 18,-5 6,-3 12,-7 17,-11 1,-1 2,-3 1,-4 -1,-2 -3,-2 -4,-1 -5,4 -11,8 -16,11 -6,2 -11,4 -17,5 -6,0 -12,0 -17,-1 -6,-1 -12,-3 -18,-5 -1,-1 -3,0 -3,2 -1,1 0,3 1,3zm-1 4c-4,-1 -6,-5 -5,-9 2,-4 6,-6 10,-4 6,2 11,4 17,5 5,1 10,1 15,0 6,-1 11,-2 16,-5 5,-2 10,-5 15,-9 3,-3 7,-2 10,1 3,3 2,8 -1,10 -5,5 -12,9 -18,12 -6,3 -13,5 -20,6 -6,1 -13,0 -20,-1 -7,-1 -13,-3 -19,-6zm47 -90c0,-1 1,-2 2,-2 1,0 2,2 2,3 -1,4 -2,11 -2,17 0,7 0,14 2,19 2,4 1,8 1,10 -2,2 -3,4 -5,5 -3,1 -7,1 -11,0 -3,1 -8,2 -13,2 -6,0 -11,-1 -11,-7 0,-3 1,-4 4,-4 3,0 7,1 11,2 3,1 6,2 9,3 1,0 1,0 1,0 3,0 6,1 8,0 1,-1 2,-2 2,-3 1,-1 1,-3 0,-7 -2,-5 -3,-13 -3,-20 1,-7 2,-13 3,-18zm-22 49c-3,-1 -7,-2 -9,-2 1,2 4,3 7,3 1,0 2,0 2,-1zm-108 -88c-4,1 -9,0 -11,-5 -2,-4 0,-9 4,-11 14,-6 27,-9 39,-8 13,1 24,5 35,12 4,3 5,8 2,12 -2,4 -8,5 -12,2 -8,-5 -16,-9 -26,-9 -9,-1 -20,1 -31,7zm228 2c4,2 9,0 11,-4 2,-5 0,-10 -4,-12 -14,-6 -27,-9 -39,-8 -13,1 -24,5 -35,12 -4,3 -5,8 -2,12 3,4 8,5 12,2 8,-5 17,-8 26,-9 9,0 20,2 31,7z"/>
  <path fill="blue" d="M177 366c-19,0 -34,-16 -34,-35 0,-18 15,-34 34,-34 19,0 34,16 34,34 0,19 -15,35 -34,35zm0 -63c16,0 29,13 29,28 0,16 -13,29 -29,29 -16,0 -28,-13 -28,-29 0,-15 12,-28 28,-28z"/>
  <path fill="lime" d="M341 366c-19,0 -34,-16 -34,-35 0,-18 15,-34 34,-34 19,0 34,16 34,34 0,19 -15,35 -34,35zm0 -63c16,0 29,13 29,28 0,16 -13,29 -29,29 -16,0 -29,-13 -29,-29 0,-15 13,-28 29,-28z"/>
 </g>
</svg>
