<?xml version="1.0" encoding="UTF-8"?>
<!DOCTYPE svg PUBLIC "-//W3C//DTD SVG 1.1//EN" "http://www.w3.org/Graphics/SVG/1.1/DTD/svg11.dtd">
<!-- Creator: CorelDRAW X7 -->
<svg xmlns="http://www.w3.org/2000/svg" xml:space="preserve" width="512px" height="400px" version="1.1" shape-rendering="geometricPrecision" text-rendering="geometricPrecision" image-rendering="optimizeQuality" fill-rule="evenodd" clip-rule="evenodd"
viewBox="0 0 512 400"
 xmlns:xlink="http://www.w3.org/1999/xlink">
 <g id="Layer_x0020_1">
  <metadata id="CorelCorpID_0Corel-Layer"/>
  <rect fill="#E6E6E6" width="512" height="400"/>
  <g id="_2149637404512">
   <path fill="black" fill-rule="nonzero" d="M438 348l0 -73 8 0 0 29c1,-3 3,-5 6,-6 3,-1 6,-2 11,-2 6,0 11,1 14,4 3,3 4,8 4,14l0 34 -8 0 0 -32c0,-5 0,-9 -2,-11 -2,-1 -5,-2 -9,-2 -6,0 -10,1 -12,4 -3,2 -4,6 -4,11l0 30 -8 0zm-199 0l0 -51 7 0 0 7c1,-3 3,-5 6,-6 3,-1 7,-2 11,-2 7,0 12,1 14,4 3,3 4,8 4,14l0 34 -7 0 0 -32c0,-5 -1,-9 -3,-11 -1,-1 -4,-2 -9,-2 -5,0 -9,1 -12,4 -2,2 -4,6 -4,11l0 30 -7 0zm-104 0l0 -51 7 0 0 7c2,-3 4,-5 6,-6 3,-1 7,-2 11,-2 7,0 12,1 15,4 2,3 4,8 4,14l0 34 -8 0 0 -32c0,-5 -1,-9 -2,-11 -2,-1 -5,-2 -10,-2 -5,0 -9,1 -12,4 -2,2 -3,6 -3,11l0 30 -8 0zm-104 -15l8 0 0 1c0,3 1,5 3,7 2,1 6,1 12,1 6,0 10,0 12,-1 1,-2 2,-4 2,-7 0,-4 -1,-6 -2,-7 -1,-1 -4,-2 -9,-2 -2,0 -5,0 -8,-1 -7,0 -11,0 -12,-1 -2,-1 -4,-3 -4,-4 -1,-2 -2,-5 -2,-8 0,-6 2,-10 5,-12 3,-2 9,-3 19,-3 8,0 13,1 16,3 2,2 4,5 4,10l-8 0 0 -1c0,-2 -1,-3 -3,-4 -2,-1 -6,-2 -12,-2 -5,0 -9,1 -11,2 -1,1 -2,3 -2,7 0,2 0,3 0,4 1,1 1,1 2,2 2,1 5,1 10,1 2,0 3,0 3,0 5,0 8,1 11,1 2,0 4,1 5,1 2,1 4,3 5,5 1,2 1,4 1,8 0,4 0,7 -1,9 -1,2 -3,3 -5,5 -2,1 -3,1 -6,2 -2,0 -6,0 -10,0 -10,0 -16,-1 -19,-3 -3,-2 -4,-6 -4,-12l0 -1zm60 35l-16 0 0 -7 16 0c3,0 5,-1 7,-3 0,-1 1,-3 2,-4l0 -2 -4 -14 -15 -41 8 0 15 44 15 -44 8 0 -19 56c-3,6 -5,10 -7,12 -2,2 -4,3 -7,3 -1,0 -2,0 -3,0zm111 -65c-5,0 -9,4 -9,9l0 21c0,5 4,9 9,9l12 0c5,0 10,-4 10,-9l0 -21c0,-5 -5,-9 -10,-9l-12 0zm0 -7l12 0c9,0 17,7 17,16l0 21c0,9 -8,16 -17,16l-12 0c-9,0 -16,-7 -16,-16l0 -21c0,-9 7,-16 16,-16zm147 7l12 0c5,0 9,4 9,9l0 5 -31 0 0 -5c0,-5 4,-9 10,-9zm21 28l0 2c0,5 -4,9 -9,9l-12 0c-6,0 -10,-4 -10,-9l0 -9 8 0 23 0 7 0 0 -12c0,-9 -7,-16 -16,-16l-12 0c-10,0 -17,7 -17,16l0 21c0,9 7,16 17,16l12 0c9,0 16,-7 16,-16l0 -2 -7 0zm32 -28l12 0c5,0 9,4 9,9l0 3 7 0 0 -3c0,-9 -7,-16 -16,-16l-12 0c-9,0 -17,7 -17,16l0 21c0,9 8,16 17,16l12 0c9,0 16,-7 16,-16l0 -4 -7 0 0 4c0,5 -4,9 -9,9l-12 0c-5,0 -10,-4 -10,-9l0 -21c0,-5 5,-9 10,-9zm-104 -18l0 11 -9 0 0 7 9 0 0 45 7 0 0 -45 21 0 0 -7 -21 0 0 -11 -7 0z"/>
   <path fill="black" d="M348 165c30,12 20,50 -11,55 -11,23 -47,40 -83,40 -43,-1 -70,-22 -78,-40 -30,3 -44,-47 -12,-54 -7,-20 -6,-43 1,-61 3,-8 8,-10 12,-18 8,-12 13,-25 25,-37 -1,40 3,0 42,-18 10,30 27,27 18,12 11,7 30,9 42,15 12,6 16,17 24,25 30,14 27,46 20,81zm-175 47c-19,0 -28,-34 -7,-38l2 0c1,13 3,25 5,38zm3 -40c-1,-9 1,-14 6,-19 12,-11 2,-19 8,-30 5,-8 17,-11 23,-12 26,-1 27,11 44,10 21,-1 28,-19 56,-7 11,5 10,18 12,27 2,9 5,13 11,19 1,13 -1,45 -6,57 -12,24 -51,35 -76,35 -16,0 -34,-4 -48,-12 -9,-5 -19,-13 -23,-23 -5,-11 -6,-33 -7,-45zm164 39c2,-12 4,-25 4,-38l1 0c22,8 14,32 -5,38zm-88 25c-1,0 -1,-1 -1,-1 0,-1 1,-1 1,-1 3,0 5,0 7,0 3,0 5,0 6,-1 1,0 2,1 2,1 0,1 0,1 -1,2 -2,0 -4,0 -6,1 -3,0 -5,0 -8,-1zm-10 -11c3,2 6,3 10,3 3,1 6,1 10,1 3,-1 6,-2 9,-3 3,-2 6,-4 9,-6 1,-1 1,-2 0,-2 0,-1 -1,-1 -2,0 -2,2 -5,4 -8,5 -3,1 -6,2 -9,3 -3,0 -6,0 -9,-1 -3,0 -6,-1 -9,-2 -1,-1 -2,0 -2,1 0,0 0,1 1,1zm-1 3c-2,-1 -3,-3 -2,-5 1,-2 3,-3 5,-2 3,1 6,2 9,2 2,1 5,1 8,0 3,0 5,-1 8,-2 3,-1 5,-3 8,-5 1,-2 4,-1 5,0 2,2 1,4 0,6 -3,2 -6,4 -10,6 -3,1 -6,3 -10,3 -4,1 -7,0 -11,0 -3,-1 -7,-2 -10,-3zm25 -48c0,0 0,-1 1,-1 1,0 1,1 1,2 0,2 -1,5 -1,9 0,3 0,7 1,10 1,2 1,4 0,5 0,1 -1,2 -2,2 -1,1 -3,1 -6,1 -1,0 -4,1 -7,1 -3,0 -5,-1 -6,-4 0,-2 1,-2 3,-2 1,0 3,0 5,1 2,0 4,1 5,1 0,0 1,0 1,0 1,1 3,1 4,0 0,0 1,0 1,-1 0,-1 0,-2 0,-4 -1,-3 -2,-6 -1,-10 0,-4 0,-7 1,-10zm-11 26c-2,0 -4,-1 -5,-1 0,1 2,1 3,1 1,0 1,0 2,0zm-57 -46c-2,1 -5,0 -6,-3 -1,-2 0,-4 2,-5 8,-4 14,-5 21,-5 6,1 12,3 18,7 2,1 3,4 1,6 -1,2 -4,2 -6,1 -4,-3 -9,-5 -14,-5 -5,0 -10,1 -16,4zm119 1c3,1 5,0 6,-2 1,-3 0,-5 -2,-6 -7,-4 -14,-5 -21,-5 -6,1 -12,3 -18,7 -2,1 -2,4 -1,6 2,2 4,3 6,1 5,-3 9,-4 14,-5 5,0 10,1 16,4z"/>
   <g>
    <path fill="blue" d="M215 203c-10,0 -18,-8 -18,-18 0,-10 8,-18 18,-18 10,0 18,8 18,18 0,10 -8,18 -18,18zm0 -33c8,0 15,7 15,15 0,9 -7,15 -15,15 -9,0 -15,-6 -15,-15 0,-8 6,-15 15,-15z"/>
    <path fill="lime" d="M301 203c-10,0 -18,-8 -18,-18 0,-10 8,-18 18,-18 9,0 17,8 17,18 0,10 -8,18 -17,18zm0 -33c8,0 15,7 15,15 0,9 -7,15 -15,15 -9,0 -15,-6 -15,-15 0,-8 6,-15 15,-15z"/>
   </g>
  </g>
 </g>
</svg>
