<?xml version="1.0" encoding="UTF-8"?>
<!DOCTYPE svg PUBLIC "-//W3C//DTD SVG 1.1//EN" "http://www.w3.org/Graphics/SVG/1.1/DTD/svg11.dtd">
<!-- Creator: CorelDRAW X7 -->
<svg xmlns="http://www.w3.org/2000/svg" xml:space="preserve" width="1000px" height="1000px" version="1.1" shape-rendering="geometricPrecision" text-rendering="geometricPrecision" image-rendering="optimizeQuality" fill-rule="evenodd" clip-rule="evenodd"
viewBox="0 0 1000 1000"
 xmlns:xlink="http://www.w3.org/1999/xlink">
 <defs>
   <clipPath id="id0">
    <path d="M500 157l-136 0 -49 43 -66 0 -26 25 0 65 -9 0 0 -5 -15 0 0 16 4 0 0 8 -10 0 0 9 -11 0 0 10 -10 0 0 11 -8 0 0 28 -11 0 0 11 11 0 0 54 8 0 0 10 10 0 0 7 7 0 1 0 12 0 -30 -29 0 -7 9 0 0 -15 -9 0 0 -47 59 -55 0 -65 22 -23 67 0 49 -43 131 0 131 0 49 43 67 0 22 23 0 65 59 55 0 47 -9 0 0 15 9 0 0 7 -30 29 12 0 8 0 0 -7 10 0 0 -10 8 0 0 -54 11 0 0 -11 -11 0 0 -28 -8 0 0 -11 -10 0 0 -10 -11 0 0 -9 -10 0 0 -8 4 0 0 -16 -15 0 0 5 -9 0 0 -65 -26 -25 -66 0 -49 -43 -136 0zm-319 454l-7 0 0 21 6 0 0 10 -6 0 0 24 181 179 144 0 144 0 182 -179 0 -24 -6 0 0 -10 6 0 0 -21 -7 0 0 -15 7 0 0 -11 -24 -25 9 0 3 0 21 22 0 87 -187 185 -148 0 -147 0 -187 -185 0 -87 21 -22 3 0 9 0 -24 25 0 11 7 0 0 15z"/>
   </clipPath>
   <clipPath id="id1">
    <path d="M271 636l-20 -18 0 -33 25 -25 8 0 0 76 -13 0zm61 -18l-33 0 0 45 21 20 12 0 0 -65zm48 0l-32 37 0 55 20 19 23 0 0 -59 -11 0 0 -52zm60 65l-34 0 0 46 16 17 18 0 0 -63zm51 10l-34 0 0 53 34 0 0 -53zm17 0l34 0 0 53 -34 0 0 -53zm50 -10l35 0 0 46 -16 17 -19 0 0 -63zm60 -65l33 37 0 55 -20 19 -23 0 0 -59 10 0 0 -52zm48 0l34 0 0 45 -14 14 -7 6 -13 0 0 -65zm62 18l20 -18 0 -33 -25 -25 -8 0 0 76 13 0zm-13 -268l12 0 22 22 0 34 -26 26 -8 0 0 -82zm-46 -34l21 0 10 11 0 59 -31 0 0 -70zm-51 -32l36 0 0 69 -36 37 0 -106zm-53 -27l17 0 21 22 0 54 -38 0 0 -76zm-58 0l43 0 0 61 -43 0 0 -61zm-14 0l-43 0 0 61 43 0 0 -61zm-58 0l-17 0 -21 22 0 54 38 0 0 -76zm-53 27l-36 0 0 69 36 37 0 -106zm-51 32l-21 0 -10 11 0 59 31 0 0 -70zm-46 34l-12 0 -22 22 0 34 26 26 8 0 0 -82z"/>
   </clipPath>
   <clipPath id="id2">
    <path d="M220 686l-28 -28 0 -65 31 -33 23 0 -26 53 0 73zm99 98l-83 -82 0 -74 83 80 0 76zm180 43l-136 0 -28 -27 0 -78 25 25 37 0 17 17 85 0 86 0 16 -17 37 0 26 -25 0 78 -28 27 -137 0zm180 -119l84 -80 0 74 -84 82 0 -76zm99 -95l-25 -53 22 0 32 33 0 65 -29 28 0 -73 0 0zm-547 -293l-37 35 0 63 33 31 19 0 -15 -33 0 0 0 0 -11 -22 11 -9 0 -65zm538 0l37 35 0 63 -33 31 -19 0 15 -33 0 0 0 0 11 -22 -11 -9 0 -65zm-269 -137l-124 0 -128 121 0 66 91 -83 48 0 27 -28 86 0 86 0 27 28 48 0 91 83 0 -66 -128 -121 -124 0z"/>
   </clipPath>
   <clipPath id="id3">
    <path d="M696 226l45 0 11 11 0 42 -56 -53zm-392 0l-45 0 -11 11 0 42 56 -53z"/>
   </clipPath>
   <clipPath id="id4">
    <path d="M700 560l0 43 -49 0 0 30 -24 -28c10,-13 18,-28 23,-45l50 0zm-97 70l0 25 -10 0 0 13 -50 0 0 10 -88 0 0 -10 -49 0 0 -13 -11 0 0 -26c7,6 14,11 21,16 34,-13 62,-11 83,6 22,-17 50,-19 84,-6 7,-4 14,-9 20,-15zm-230 -26l-26 29 0 -30 -48 0 0 -43 51 0c5,16 13,31 23,44zm127 -254l-50 0 0 15 -54 0 0 77 -51 -51 0 28 -45 0 0 31 95 0c21,-36 60,-60 105,-60 45,0 84,24 105,60l95 0 0 -31 -45 0 0 -28 -51 51 0 -77 -54 0 0 -15 -50 0z"/>
   </clipPath>
 </defs>
 <g id="Layer_x0020_1">
  <metadata id="CorelCorpID_0Corel-Layer"/>
  <rect fill="black" width="1000" height="1000"/>
  <g id="_2652825615056">
   <path fill="white" d="M426 543l0 -76 58 0 0 14 -44 0 0 17 34 0 0 14 -34 0 0 17 44 0 0 14 -58 0zm116 0l0 -62 -22 0 0 -14 58 0 0 14 -22 0 0 62 -14 0zm49 0l0 -76 14 0 0 31 32 0 0 -31 14 0 0 76 -14 0 0 -31 -32 0 0 31 -14 0zm74 -14l19 0 0 -48 -19 0 0 -14 51 0 0 14 -18 0 0 48 18 0 0 14 -51 0 0 -14zm-289 14l0 -62 -22 0 0 -14 58 0 0 14 -22 0 0 62 -14 0zm-94 -44l0 -32 14 0 0 23 9 0 0 10 14 0 0 -10 8 0 0 -23 14 0 0 32 -13 0 0 12 -9 0 0 32 -14 0 0 -32 -9 0 0 -12 -14 0zm-29 30l0 -17 -31 0 0 17 31 0zm-45 -62l51 0 0 8 8 0 0 25 -7 0 0 10 7 0 0 25 -8 0 0 8 -51 0 0 -76zm14 31l31 0 0 -17 -31 0 0 17zm517 -31l42 0 0 8 11 0 0 14 -14 0 0 -8 -35 0 0 17 33 0 2 0 5 0 0 9 9 0 0 28 -11 0 0 8 -42 0 0 -8 -10 0 0 -15 14 0 0 9 35 0 0 -17 -32 0 -3 0 -4 0 0 -10 -10 0 0 -27 10 0 0 -8z"/>
   <path fill="white" d="M574 569l19 0 0 5 6 0 0 6 -7 0 0 -4 -16 0 0 8 15 0 1 0 2 0 0 4 5 0 0 13 -6 0 0 4 -19 0 0 -4 -5 0 0 -6 7 0 0 4 16 0 0 -8 -15 0 -1 0 -2 0 0 -5 -5 0 0 -12 5 0 0 -5zm-46 36l0 -36 27 0 0 7 -20 0 0 8 16 0 0 7 -16 0 0 8 20 0 0 6 -27 0zm-19 -36l7 0 0 36 -7 0 0 -19 -6 0 0 4 -7 0 0 -4 -5 0 0 19 -7 0 0 -36 7 0 0 6 5 0 0 5 7 0 0 -5 6 0 0 -6zm-44 5l2 0 0 2 4 0 0 29 -6 0 0 -9 -17 0 0 9 -6 0 0 -29 4 0 0 -2 2 0 0 -5 17 0 0 5zm-4 6l0 -4 -9 0 0 4 -4 0 0 9 17 0 0 -9 -4 0zm-55 -11l24 0 0 7 -20 0 0 4 -4 0 0 15 4 0 0 4 13 0 0 -8 -7 0 0 -7 7 0 7 0 0 7 0 8 0 6 -7 0 -17 0 0 -6 -7 0 0 -4 0 -15 0 -4 7 0 0 -7z"/>
  </g>
  <path fill="#6600CC" d="M500 157l-136 0 -49 43 -66 0 -26 25 0 65 -9 0 0 -5 -15 0 0 16 4 0 0 8 -10 0 0 9 -11 0 0 10 -10 0 0 11 -8 0 0 28 -11 0 0 11 11 0 0 54 8 0 0 10 10 0 0 7 7 0 1 0 12 0 -30 -29 0 -7 9 0 0 -15 -9 0 0 -47 59 -55 0 -65 22 -23 67 0 49 -43 131 0 131 0 49 43 67 0 22 23 0 65 59 55 0 47 -9 0 0 15 9 0 0 7 -30 29 12 0 8 0 0 -7 10 0 0 -10 8 0 0 -54 11 0 0 -11 -11 0 0 -28 -8 0 0 -11 -10 0 0 -10 -11 0 0 -9 -10 0 0 -8 4 0 0 -16 -15 0 0 5 -9 0 0 -65 -26 -25 -66 0 -49 -43 -136 0zm-319 454l-7 0 0 21 6 0 0 10 -6 0 0 24 181 179 144 0 144 0 182 -179 0 -24 -6 0 0 -10 6 0 0 -21 -7 0 0 -15 7 0 0 -11 -24 -25 9 0 3 0 21 22 0 87 -187 185 -148 0 -147 0 -187 -185 0 -87 21 -22 3 0 9 0 -24 25 0 11 7 0 0 15z"/>
  <g clip-path="url(#id0)">
   <g id="_2652825613168">
    <rect fill="#2FEFF2" x="325" y="539" width="69.9993" height="69.9993"/>
    <rect fill="#28ACBD" x="395" y="539" width="69.9993" height="69.9993"/>
    <rect fill="#23C3D9" x="465" y="539" width="69.9993" height="69.9993"/>
    <rect fill="#CC4A9A" x="535" y="539" width="69.9993" height="69.9993"/>
    <rect fill="#A83B7E" x="605" y="539" width="69.9993" height="69.9993"/>
   </g>
  </g>
  <path fill="none" d="M500 157l-136 0 -49 43 -66 0 -26 25 0 65 -9 0 0 -5 -15 0 0 16 4 0 0 8 -10 0 0 9 -11 0 0 10 -10 0 0 11 -8 0 0 28 -11 0 0 11 11 0 0 54 8 0 0 10 10 0 0 7 7 0 1 0 12 0 -30 -29 0 -7 9 0 0 -15 -9 0 0 -47 59 -55 0 -65 22 -23 67 0 49 -43 131 0 131 0 49 43 67 0 22 23 0 65 59 55 0 47 -9 0 0 15 9 0 0 7 -30 29 12 0 8 0 0 -7 10 0 0 -10 8 0 0 -54 11 0 0 -11 -11 0 0 -28 -8 0 0 -11 -10 0 0 -10 -11 0 0 -9 -10 0 0 -8 4 0 0 -16 -15 0 0 5 -9 0 0 -65 -26 -25 -66 0 -49 -43 -136 0zm-319 454l-7 0 0 21 6 0 0 10 -6 0 0 24 181 179 144 0 144 0 182 -179 0 -24 -6 0 0 -10 6 0 0 -21 -7 0 0 -15 7 0 0 -11 -24 -25 9 0 3 0 21 22 0 87 -187 185 -148 0 -147 0 -187 -185 0 -87 21 -22 3 0 9 0 -24 25 0 11 7 0 0 15z"/>
  <path fill="#6600CC" d="M142 305l-15 0 0 -16 15 0 0 16zm-38 44l-9 0 0 -10 9 0 0 10zm49 9l-14 0 0 -14 14 0 0 14zm-9 -134l-9 0 0 -9 9 0 0 9zm28 31l-15 0 0 -15 15 0 0 15zm24 -31l-9 0 0 -9 9 0 0 9zm660 0l9 0 0 -9 -9 0 0 9zm2 81l15 0 0 -16 -15 0 0 16zm-30 -50l15 0 0 -15 -15 0 0 15zm-24 -31l9 0 0 -9 -9 0 0 9zm43 134l14 0 0 -14 -14 0 0 14zm49 -9l9 0 0 -10 -9 0 0 10zm0 62l10 0 0 -10 -10 0 0 10zm-94 314l15 0 0 -15 -15 0 0 15zm94 -119l8 0 0 -9 -8 0 0 9zm-43 144l8 0 0 -9 -8 0 0 9zm-29 22l8 0 0 -8 -8 0 0 8zm-4 -29l10 0 0 -10 -10 0 0 10zm26 -87l14 0 0 -13 -14 0 0 13zm-649 69l-15 0 0 -15 15 0 0 15zm-94 -119l-9 0 0 -9 9 0 0 9zm43 144l-8 0 0 -9 8 0 0 9zm29 22l-9 0 0 -8 9 0 0 8zm4 -29l-10 0 0 -10 10 0 0 10zm-26 -87l-14 0 0 -13 14 0 0 13z"/>
  <path fill="#9900FF" d="M159 331l-10 0 0 -10 10 0 0 10zm705 54l15 0 0 -15 -15 0 0 15zm-79 -130l14 0 0 -14 -14 0 0 14zm22 24l11 0 0 -11 -11 0 0 11zm43 136l15 0 0 -15 -15 0 0 15zm-9 -84l10 0 0 -10 -10 0 0 10zm-626 -76l-14 0 0 -14 14 0 0 14zm-37 48l-11 0 0 -11 11 0 0 11zm644 0l11 0 0 -11 -11 0 0 11zm-629 -24l-11 0 0 -11 11 0 0 11zm-90 387l-9 0 0 -8 9 0 0 8zm793 0l9 0 0 -8 -9 0 0 8zm-47 -63l15 0 0 -15 -15 0 0 15zm15 31l15 0 0 -15 -15 0 0 15zm-6 75l15 0 0 -15 -15 0 0 15zm-708 -106l-15 0 0 -15 15 0 0 15zm-15 31l-15 0 0 -15 15 0 0 15zm6 75l-15 0 0 -15 15 0 0 15zm16 -27l-9 0 0 -9 9 0 0 9zm16 22l-11 0 0 -10 11 0 0 10zm669 -22l8 0 0 -9 -8 0 0 9zm-16 22l10 0 0 -10 -10 0 0 10z"/>
  <path fill="#FEFEFE" d="M271 636l-20 -18 0 -33 25 -25 8 0 0 76 -13 0zm61 -18l-33 0 0 45 21 20 12 0 0 -65zm48 0l-32 37 0 55 20 19 23 0 0 -59 -11 0 0 -52zm60 65l-34 0 0 46 16 17 18 0 0 -63zm51 10l-34 0 0 53 34 0 0 -53zm17 0l34 0 0 53 -34 0 0 -53zm50 -10l35 0 0 46 -16 17 -19 0 0 -63zm60 -65l33 37 0 55 -20 19 -23 0 0 -59 10 0 0 -52zm48 0l34 0 0 45 -14 14 -7 6 -13 0 0 -65zm62 18l20 -18 0 -33 -25 -25 -8 0 0 76 13 0zm-13 -268l12 0 22 22 0 34 -26 26 -8 0 0 -82zm-46 -34l21 0 10 11 0 59 -31 0 0 -70zm-51 -32l36 0 0 69 -36 37 0 -106zm-53 -27l17 0 21 22 0 54 -38 0 0 -76zm-58 0l43 0 0 61 -43 0 0 -61zm-14 0l-43 0 0 61 43 0 0 -61zm-58 0l-17 0 -21 22 0 54 38 0 0 -76zm-53 27l-36 0 0 69 36 37 0 -106zm-51 32l-21 0 -10 11 0 59 31 0 0 -70zm-46 34l-12 0 -22 22 0 34 26 26 8 0 0 -82z"/>
  <g clip-path="url(#id1)">
   <g id="_2652825602384">
    <g>
     <polygon id="1" fill="#AFD4DC" points="756,623 753,598 729,622 710,622 710,660 "/>
     <polygon fill="#CBE4E9" points="753,568 729,553 729,622 753,598 "/>
     <polygon fill="#AFD4DC" points="709,666 707,642 681,667 660,667 660,707 "/>
     <polygon fill="#AFD4DC" points="636,711 603,711 602,740 654,732 655,614 636,614 "/>
     <polygon fill="#AFD4DC" points="600,756 602,704 579,727 552,727 552,756 "/>
     <rect fill="#AFD4DC" x="505" y="731" width="40.1055" height="30.2079"/>
     <rect fill="#AFD4DC" x="454" y="731" width="40.1055" height="30.2079"/>
     <polygon fill="#AFD4DC" points="399,756 397,704 419,727 447,727 447,756 "/>
     <polygon fill="#AFD4DC" points="363,711 395,711 397,740 345,732 344,614 363,614 "/>
     <polygon fill="#AFD4DC" points="289,666 291,642 318,667 339,667 339,707 "/>
     <polygon fill="#AFD4DC" points="243,623 245,598 270,622 289,622 289,660 "/>
     <polygon fill="#CBE4E9" points="245,568 270,553 270,622 245,598 "/>
    </g>
    <g>
     <g>
      <rect fill="#CBE4E9" x="729" y="376" width="42.9697" height="75.8386"/>
      <polygon fill="#AFD4DC" points="708,364 711,385 727,385 758,416 758,364 "/>
     </g>
     <polygon fill="#AFD4DC" points="664,352 686,352 706,371 706,331 664,331 "/>
     <polygon fill="#AFD4DC" points="662,294 609,294 609,318 640,318 640,394 662,394 "/>
     <polygon fill="#AFD4DC" points="546,291 582,291 613,323 613,258 546,258 "/>
     <rect fill="#AFD4DC" x="500" y="267" width="57.5528" height="24.9295"/>
     <rect fill="#AFD4DC" x="443" y="267" width="57.5528" height="24.9295"/>
     <polygon fill="#AFD4DC" points="454,291 418,291 387,323 387,258 454,258 "/>
     <polygon fill="#AFD4DC" points="338,294 391,294 391,318 360,318 360,394 338,394 "/>
     <polygon fill="#AFD4DC" points="336,352 314,352 294,371 294,331 336,331 "/>
     <g>
      <rect fill="#CBE4E9" x="228" y="376" width="42.9697" height="75.8386"/>
      <polygon fill="#AFD4DC" points="292,364 289,385 273,385 242,416 242,364 "/>
     </g>
    </g>
   </g>
  </g>
  <path fill="none" d="M271 636l-20 -18 0 -33 25 -25 8 0 0 76 -13 0zm61 -18l-33 0 0 45 21 20 12 0 0 -65zm48 0l-32 37 0 55 20 19 23 0 0 -59 -11 0 0 -52zm60 65l-34 0 0 46 16 17 18 0 0 -63zm51 10l-34 0 0 53 34 0 0 -53zm17 0l34 0 0 53 -34 0 0 -53zm50 -10l35 0 0 46 -16 17 -19 0 0 -63zm60 -65l33 37 0 55 -20 19 -23 0 0 -59 10 0 0 -52zm48 0l34 0 0 45 -14 14 -7 6 -13 0 0 -65zm62 18l20 -18 0 -33 -25 -25 -8 0 0 76 13 0zm-13 -268l12 0 22 22 0 34 -26 26 -8 0 0 -82zm-46 -34l21 0 10 11 0 59 -31 0 0 -70zm-51 -32l36 0 0 69 -36 37 0 -106zm-53 -27l17 0 21 22 0 54 -38 0 0 -76zm-58 0l43 0 0 61 -43 0 0 -61zm-14 0l-43 0 0 61 43 0 0 -61zm-58 0l-17 0 -21 22 0 54 38 0 0 -76zm-53 27l-36 0 0 69 36 37 0 -106zm-51 32l-21 0 -10 11 0 59 31 0 0 -70zm-46 34l-12 0 -22 22 0 34 26 26 8 0 0 -82z"/>
  <path fill="#9900FF" d="M220 686l-28 -28 0 -65 31 -33 23 0 -26 53 0 73zm99 98l-83 -82 0 -74 83 80 0 76zm180 43l-136 0 -28 -27 0 -78 25 25 37 0 17 17 85 0 86 0 16 -17 37 0 26 -25 0 78 -28 27 -137 0zm180 -119l84 -80 0 74 -84 82 0 -76zm99 -95l-25 -53 22 0 32 33 0 65 -29 28 0 -73 0 0zm-547 -293l-37 35 0 63 33 31 19 0 -15 -33 0 0 0 0 -11 -22 11 -9 0 -65zm538 0l37 35 0 63 -33 31 -19 0 15 -33 0 0 0 0 11 -22 -11 -9 0 -65zm-269 -137l-124 0 -128 121 0 66 91 -83 48 0 27 -28 86 0 86 0 27 28 48 0 91 83 0 -66 -128 -121 -124 0z"/>
  <g clip-path="url(#id2)">
   <g id="_2652825665904">
    <path id="1" fill="#6633FF" d="M773 449l33 -31 -26 -24 -26 55 19 0zm-546 0l-33 -31 26 -24 26 55 -19 0zm-4 111l-31 33 28 20 26 -53 -23 0zm530 0l25 53 29 -20 -32 -33 -22 0z"/>
    <polygon fill="#373435" fill-rule="nonzero" points="443,-111 443,-141 447,-141 447,-115 461,-115 461,-111 "/>
    <path id="1" fill="#373435" fill-rule="nonzero" d="M466 -137l0 -4 3 0 0 4 -3 0zm0 26l0 -22 3 0 0 22 -3 0z"/>
    <path id="2" fill="#373435" fill-rule="nonzero" d="M475 -103l0 -30 3 0 0 3c1,-1 2,-2 3,-3 1,0 2,0 4,0 1,0 3,0 4,1 2,1 3,2 4,4 0,2 1,4 1,6 0,2 -1,4 -1,6 -1,1 -2,3 -4,4 -1,1 -3,1 -5,1 -1,0 -2,0 -3,-1 -1,0 -2,-1 -2,-2l0 11 -4 0zm3 -19c0,3 1,5 2,6 1,1 2,2 4,2 2,0 3,-1 4,-2 1,-1 2,-3 2,-6 0,-3 -1,-5 -2,-7 -1,-1 -2,-2 -4,-2 -1,0 -3,1 -4,3 -1,1 -2,3 -2,6z"/>
    <path id="3" fill="#373435" fill-rule="nonzero" d="M497 -118l3 0c1,1 1,2 2,3 1,1 2,1 4,1 2,0 3,0 4,-1 0,-1 1,-1 1,-2 0,-1 0,-2 -1,-2 -1,-1 -2,-1 -4,-2 -3,0 -4,-1 -6,-1 -1,-1 -1,-1 -2,-2 0,-1 -1,-2 -1,-3 0,-1 1,-2 1,-3 0,-1 1,-1 2,-2 0,0 1,-1 2,-1 1,0 2,0 3,0 2,0 3,0 5,0 1,1 2,1 3,2 0,1 1,2 1,4l-4 0c0,-1 0,-2 -1,-3 -1,0 -2,0 -3,0 -2,0 -3,0 -4,0 -1,1 -1,2 -1,2 0,1 0,1 0,2 1,0 1,0 2,1 0,0 1,0 3,1 3,0 4,1 5,1 1,1 2,1 3,2 0,1 1,2 1,3 0,1 -1,3 -1,4 -1,1 -2,2 -4,2 -1,1 -2,1 -4,1 -3,0 -5,0 -6,-2 -2,-1 -3,-3 -3,-5z"/>
    <rect fill="#BF3F8E" x="214" y="-157" width="69.9993" height="69.9993"/>
    <rect fill="#CC4A9A" x="284" y="-157" width="69.9993" height="69.9993"/>
    <rect fill="#A83B7E" x="354" y="-157" width="69.9993" height="69.9993"/>
    <path fill="#6600CC" d="M806 355l0 2 0 61 -9 -9 0 -45 -173 -163 -248 0 -139 131 0 0 -34 32 0 45 -9 9 0 -61 0 0 0 -2 37 -35 17 -16 128 -121 248 0 128 121 17 16 37 35zm-26 39l0 -16 -118 -112 -36 0 -30 -28 -192 0 -30 28 -36 0 -118 112 0 16 119 -107 48 0 27 -28 172 0 27 28 48 0 119 107zm-17 234l0 14 -127 126 -27 0 -16 17 -187 0 -16 -17 -27 0 -127 -126 0 -14 124 119 37 0 17 17 171 0 16 -17 37 0 26 -25 99 -94z"/>
   </g>
  </g>
  <path fill="none" d="M220 686l-28 -28 0 -65 31 -33 23 0 -26 53 0 73zm99 98l-83 -82 0 -74 83 80 0 76zm180 43l-136 0 -28 -27 0 -78 25 25 37 0 17 17 85 0 86 0 16 -17 37 0 26 -25 0 78 -28 27 -137 0zm180 -119l84 -80 0 74 -84 82 0 -76zm99 -95l-25 -53 22 0 32 33 0 65 -29 28 0 -73 0 0zm-547 -293l-37 35 0 63 33 31 19 0 -15 -33 0 0 0 0 -11 -22 11 -9 0 -65zm538 0l37 35 0 63 -33 31 -19 0 15 -33 0 0 0 0 11 -22 -11 -9 0 -65zm-269 -137l-124 0 -128 121 0 66 91 -83 48 0 27 -28 86 0 86 0 27 28 48 0 91 83 0 -66 -128 -121 -124 0z"/>
  <path fill="#2FEFF2" d="M696 226l45 0 11 11 0 42 -56 -53zm-392 0l-45 0 -11 11 0 42 56 -53z"/>
  <g clip-path="url(#id3)">
   <g id="_2652825662704">
    <rect fill="#28ACBD" x="202" y="185" width="595.868" height="54.9485"/>
    <rect fill="#2FEFF2" x="589" y="-157" width="69.9993" height="69.9993"/>
    <rect fill="#28ACBD" x="659" y="-157" width="69.9993" height="69.9993"/>
    <polygon fill="#373435" fill-rule="nonzero" points="754,-111 754,-141 775,-141 775,-138 758,-138 758,-129 774,-129 774,-125 758,-125 758,-115 776,-115 776,-111 "/>
    <path id="1" fill="#373435" fill-rule="nonzero" d="M781 -103l0 -3c0,0 1,0 2,0 1,0 1,0 2,-1 0,0 1,0 1,-1 0,0 0,-1 1,-2 0,-1 0,-1 0,-1l-8 -22 4 0 5 12c0,2 1,4 1,5 1,-1 1,-3 2,-4l4 -13 4 0 -8 22c-1,2 -2,4 -2,5 -1,1 -2,2 -3,3 0,0 -1,0 -3,0 0,0 -1,0 -2,0z"/>
    <path id="2" fill="#373435" fill-rule="nonzero" d="M817 -118l4 0c-1,2 -2,4 -4,5 -1,1 -3,2 -6,2 -3,0 -6,-1 -7,-3 -2,-2 -3,-4 -3,-8 0,-4 1,-6 3,-8 1,-2 4,-3 7,-3 3,0 5,1 7,2 2,2 3,5 3,9 0,0 0,0 0,1l-16 0c0,2 0,4 2,5 1,1 2,2 4,2 1,0 3,0 3,-1 1,-1 2,-2 3,-3zm-12 -6l12 0c0,-2 -1,-3 -2,-4 -1,-2 -2,-2 -4,-2 -2,0 -3,0 -4,1 -1,1 -2,3 -2,5z"/>
    <path id="3" fill="#373435" fill-rule="nonzero" d="M824 -118l3 0c1,1 1,2 2,3 1,1 2,1 4,1 2,0 3,0 4,-1 1,-1 1,-1 1,-2 0,-1 0,-2 -1,-2 -1,-1 -2,-1 -4,-2 -3,0 -4,-1 -6,-1 -1,-1 -1,-1 -2,-2 0,-1 -1,-2 -1,-3 0,-1 1,-2 1,-3 0,-1 1,-1 2,-2 0,0 1,-1 2,-1 1,0 2,0 3,0 2,0 3,0 5,0 1,1 2,1 3,2 0,1 1,2 1,4l-4 0c0,-1 0,-2 -1,-3 -1,0 -2,0 -3,0 -2,0 -3,0 -4,0 -1,1 -1,2 -1,2 0,1 0,1 0,2 1,0 1,0 2,1 0,0 1,0 3,1 3,0 4,1 5,1 1,1 2,1 3,2 0,1 1,2 1,3 0,1 -1,3 -1,4 -1,1 -2,2 -3,2 -2,1 -3,1 -5,1 -3,0 -5,0 -6,-2 -2,-1 -3,-3 -3,-5z"/>
   </g>
  </g>
  <path fill="none" d="M696 226l45 0 11 11 0 42 -56 -53zm-392 0l-45 0 -11 11 0 42 56 -53z"/>
  <path fill="#000066" d="M700 560l0 43 -49 0 0 30 -24 -28c10,-13 18,-28 23,-45l50 0zm-97 70l0 25 -10 0 0 13 -50 0 0 10 -88 0 0 -10 -49 0 0 -13 -11 0 0 -26c7,6 14,11 21,16 34,-13 62,-11 83,6 22,-17 50,-19 84,-6 7,-4 14,-9 20,-15zm-230 -26l-26 29 0 -30 -48 0 0 -43 51 0c5,16 13,31 23,44zm127 -254l-50 0 0 15 -54 0 0 77 -51 -51 0 28 -45 0 0 31 95 0c21,-36 60,-60 105,-60 45,0 84,24 105,60l95 0 0 -31 -45 0 0 -28 -51 51 0 -77 -54 0 0 -15 -50 0z"/>
  <g clip-path="url(#id4)">
   <g id="_2652892921520">
    <path id="1" fill="#521775" d="M593 655l10 0c-43,-23 -78,-25 -104,-4 -26,-21 -60,-19 -104,4l11 0 0 13 49 0 0 10 88 0 0 -10 50 0 0 -13z"/>
    <rect fill="#381267" x="589" y="-277" width="69.9993" height="69.9993"/>
    <rect fill="#4E1F87" x="659" y="-277" width="69.9993" height="69.9993"/>
    <polygon fill="#373435" fill-rule="nonzero" points="826,-227 826,-257 830,-257 830,-227 "/>
    <path id="1" fill="#373435" fill-rule="nonzero" d="M837 -227l0 -22 3 0 0 3c2,-2 4,-4 7,-4 1,0 2,1 4,1 1,1 1,1 2,2 1,1 1,2 1,3 0,0 0,2 0,3l0 14 -3 0 0 -14c0,-1 0,-2 -1,-3 0,-1 -1,-1 -1,-2 -1,0 -2,0 -3,0 -1,0 -3,0 -4,1 -1,1 -2,3 -2,6l0 12 -3 0z"/>
    <path id="2" fill="#373435" fill-rule="nonzero" d="M860 -227l0 -22 3 0 0 3c2,-2 4,-4 7,-4 1,0 3,1 4,1 1,1 2,1 2,2 1,1 1,2 1,3 0,0 1,2 1,3l0 14 -4 0 0 -14c0,-1 0,-2 -1,-3 0,-1 0,-1 -1,-2 -1,0 -2,0 -3,0 -1,0 -3,0 -4,1 -1,1 -1,3 -1,6l0 12 -4 0z"/>
    <path id="3" fill="#373435" fill-rule="nonzero" d="M898 -234l4 0c-1,2 -2,4 -4,5 -1,1 -3,2 -6,2 -3,0 -5,-1 -7,-3 -2,-2 -3,-5 -3,-8 0,-4 1,-7 3,-9 2,-2 4,-3 7,-3 3,0 5,1 7,3 2,2 3,5 3,9 0,0 0,0 0,1l-16 0c0,2 1,4 2,5 1,1 2,2 4,2 2,0 3,0 4,-1 1,-1 1,-2 2,-3zm-12 -6l12 0c0,-2 -1,-4 -1,-4 -2,-2 -3,-3 -5,-3 -2,0 -3,1 -4,2 -1,1 -2,3 -2,5z"/>
    <path id="4" fill="#373435" fill-rule="nonzero" d="M906 -227l0 -22 4 0 0 3c0,-1 1,-2 2,-3 1,0 1,-1 2,-1 2,0 3,1 4,2l-1 3c-1,0 -2,-1 -3,-1 -1,0 -1,0 -2,1 -1,0 -1,1 -1,2 -1,1 -1,3 -1,4l0 12 -4 0z"/>
    <path id="5" fill="#373435" fill-rule="nonzero" d="M932 -227l0 -22 3 0 0 3c1,-1 2,-2 3,-3 1,0 2,-1 4,-1 1,0 3,1 4,1 1,1 1,2 2,3 1,-2 4,-4 6,-4 3,0 4,1 5,2 2,1 2,3 2,6l0 15 -4 0 0 -14c0,-2 0,-3 0,-3 0,-1 -1,-1 -1,-2 -1,0 -2,0 -2,0 -2,0 -3,0 -4,1 -1,1 -2,3 -2,5l0 13 -3 0 0 -14c0,-2 -1,-3 -1,-4 -1,-1 -2,-1 -3,-1 -1,0 -2,0 -3,0 -1,1 -2,2 -2,3 0,1 -1,2 -1,4l0 12 -3 0z"/>
    <path id="6" fill="#373435" fill-rule="nonzero" d="M965 -238c0,-4 1,-7 3,-9 2,-2 5,-3 7,-3 3,0 6,1 8,3 1,2 2,5 2,8 0,3 0,5 -1,7 -1,2 -2,3 -4,4 -1,1 -3,1 -5,1 -3,0 -5,-1 -7,-3 -2,-2 -3,-5 -3,-8zm4 0c0,3 0,5 2,6 1,1 2,2 4,2 2,0 4,-1 5,-2 1,-1 2,-4 2,-6 0,-3 -1,-5 -2,-6 -1,-2 -3,-2 -5,-2 -2,0 -3,0 -4,2 -2,1 -2,3 -2,6z"/>
    <path id="7" fill="#373435" fill-rule="nonzero" d="M1004 -227l0 -4c-2,3 -4,4 -7,4 -1,0 -2,0 -4,-1 -1,0 -2,-1 -2,-2 -1,0 -1,-1 -1,-2 0,-1 0,-2 0,-4l0 -13 3 0 0 12c0,2 0,3 0,4 1,1 1,1 2,2 1,1 2,1 3,1 1,0 2,0 3,-1 1,-1 1,-1 2,-2 0,-1 0,-3 0,-5l0 -11 4 0 0 22 -3 0z"/>
    <path id="8" fill="#373435" fill-rule="nonzero" d="M1021 -231l0 4c-1,0 -2,0 -2,0 -2,0 -3,0 -4,-1 0,0 -1,-1 -1,-1 0,-1 -1,-3 -1,-5l0 -12 -2 0 0 -3 2 0 0 -5 4 -3 0 8 4 0 0 3 -4 0 0 12c0,1 0,2 0,2 0,1 1,1 1,1 0,0 1,0 1,0 1,0 1,0 2,0z"/>
    <path id="9" fill="#373435" fill-rule="nonzero" d="M1024 -227l0 -30 4 0 0 10c2,-2 4,-3 7,-3 1,0 3,1 4,1 1,1 2,2 2,3 1,1 1,3 1,5l0 14 -4 0 0 -14c0,-2 0,-3 -1,-4 -1,-1 -2,-1 -3,-1 -1,0 -2,0 -3,0 -1,1 -2,2 -2,3 -1,1 -1,2 -1,4l0 12 -4 0z"/>
    <rect fill="#521775" x="729" y="-277" width="69.9993" height="69.9993"/>
    <path fill="navy" d="M620 385l28 0c19,23 34,51 41,82l-38 0c-6,-22 -17,-42 -31,-58l0 -24zm-268 0l28 0 0 24c-14,16 -25,36 -31,58l-38 0c7,-31 22,-59 41,-82z"/>
    <path fill="#003399" d="M271 467l40 0c7,-31 22,-59 41,-82l-81 0 0 82zm418 0l40 0 0 -82 -81 0c19,23 34,51 41,82zm67 76l-65 0c-4,26 -13,49 -26,70l91 0 0 -70zm-447 0l-65 0 0 70 91 0c-13,-21 -22,-44 -26,-70z"/>
   </g>
  </g>
  <path fill="none" d="M700 560l0 43 -49 0 0 30 -24 -28c10,-13 18,-28 23,-45l50 0zm-97 70l0 25 -10 0 0 13 -50 0 0 10 -88 0 0 -10 -49 0 0 -13 -11 0 0 -26c7,6 14,11 21,16 34,-13 62,-11 83,6 22,-17 50,-19 84,-6 7,-4 14,-9 20,-15zm-230 -26l-26 29 0 -30 -48 0 0 -43 51 0c5,16 13,31 23,44zm127 -254l-50 0 0 15 -54 0 0 77 -51 -51 0 28 -45 0 0 31 95 0c21,-36 60,-60 105,-60 45,0 84,24 105,60l95 0 0 -31 -45 0 0 -28 -51 51 0 -77 -54 0 0 -15 -50 0z"/>
 </g>
</svg>
