<?xml version="1.0" encoding="UTF-8"?>
<!DOCTYPE svg PUBLIC "-//W3C//DTD SVG 1.1//EN" "http://www.w3.org/Graphics/SVG/1.1/DTD/svg11.dtd">
<!-- Creator: CorelDRAW X7 -->
<svg xmlns="http://www.w3.org/2000/svg" xml:space="preserve" width="600px" height="80px" version="1.1" shape-rendering="geometricPrecision" text-rendering="geometricPrecision" image-rendering="optimizeQuality" fill-rule="evenodd" clip-rule="evenodd"
viewBox="0 0 600 80"
 xmlns:xlink="http://www.w3.org/1999/xlink">
 <g id="Layer_x0020_1">
  <metadata id="CorelCorpID_0Corel-Layer"/>
  <path fill="white" d="M525 22l20 0 0 4 5 0 0 6 -7 0 0 -4 -16 0 0 8 15 0 1 0 3 0 0 5 4 0 0 13 -5 0 0 4 -20 0 0 -4 -5 0 0 -7 7 0 0 5 16 0 0 -9 -15 0 -1 0 -2 0 0 -4 -5 0 0 -13 5 0 0 -4zm-47 36l0 -36 28 0 0 6 -21 0 0 8 16 0 0 7 -16 0 0 9 21 0 0 6 -28 0zm-19 -36l6 0 0 36 -6 0 0 -20 -6 0 0 5 -7 0 0 -5 -6 0 0 20 -7 0 0 -36 7 0 0 6 6 0 0 5 7 0 0 -5 6 0 0 -6zm-45 4l2 0 0 3 4 0 0 29 -6 0 0 -10 -17 0 0 10 -7 0 0 -29 5 0 0 -3 2 0 0 -4 17 0 0 4zm-4 6l0 -4 -9 0 0 4 -4 0 0 9 17 0 0 -9 -4 0zm-56 -10l24 0 0 6 -20 0 0 4 -4 0 0 16 4 0 0 4 13 0 0 -9 -7 0 0 -6 7 0 7 0 0 6 0 9 0 6 -7 0 -17 0 0 -6 -7 0 0 -4 0 -16 0 -4 7 0 0 -6zm-200 36l0 -36 28 0 0 6 -21 0 0 8 17 0 0 7 -17 0 0 9 21 0 0 6 -28 0zm56 0l0 -30 -10 0 0 -6 27 0 0 6 -10 0 0 30 -7 0zm24 0l0 -36 6 0 0 14 16 0 0 -14 6 0 0 36 -6 0 0 -15 -16 0 0 15 -6 0zm35 -6l9 0 0 -24 -9 0 0 -6 25 0 0 6 -9 0 0 24 9 0 0 6 -25 0 0 -6zm-139 6l0 -30 -10 0 0 -6 28 0 0 6 -11 0 0 30 -7 0zm-45 -21l0 -15 7 0 0 11 4 0 0 5 7 0 0 -5 4 0 0 -11 7 0 0 15 -7 0 0 6 -4 0 0 15 -7 0 0 -15 -4 0 0 -6 -7 0zm-14 15l0 -9 -14 0 0 9 14 0zm-21 -30l25 0 0 4 3 0 0 12 -3 0 0 4 3 0 0 12 -3 0 0 4 -25 0 0 -36zm7 14l14 0 0 -8 -14 0 0 8zm247 -14l20 0 0 4 6 0 0 6 -7 0 0 -4 -16 0 0 8 15 0 1 0 2 0 0 5 5 0 0 13 -6 0 0 4 -20 0 0 -4 -4 0 0 -7 7 0 0 5 16 0 0 -9 -15 0 -1 0 -3 0 0 -4 -4 0 0 -13 4 0 0 -4z"/>
 </g>
</svg>
